# File generated by ImageToStl.com - Free Image and 3D model conversion tools

mtllib platform.mtl

o obj1
v 1 4.3289766 -0.063254714
v -1.0000001 -4.328976 -0.063254714
v -0.99999964 4.3289785 -0.063254714
v 1.0000005 4.3289747 0.063254714
v -1.0000004 -4.3289757 0.063254714
v 0.99999934 -4.3289795 0.063254714
v 1 -4.328977 -0.063254714
v -0.99999994 4.328977 0.063254714
vn 0.57734865 0.5773546 -0.5773475
vn -0.57735 -0.57735074 -0.5773501
vn -0.57734793 0.57735467 -0.57734823
vn 0.5773518 0.5773453 0.5773538
vn -0.5773508 -0.5773487 0.5773513
vn 0.5773476 -0.5773565 0.5773468
vn 0.577352 -0.5773446 -0.5773542
vn -0.5773514 0.5773468 0.5773527
vt 0.99999964 2.3841784E-07 
vt 5.6220156E-06 0.58065075 
vt 0.99999994 0.5800519 
vt 0.9999994 0 
vt 8.40794E-06 0.5806525 
vt 0 2.980223E-06 
vt 3.304499E-07 2.6523985E-06 
vt 0.9999998 0.58005196 
usemtl mat0
f 1/1/1 2/2/2 3/3/3
f 4/4/4 5/5/5 6/6/6
f 4/4/4 7/7/7 1/1/1
f 6/6/6 2/2/2 7/7/7
f 5/5/5 3/3/3 2/2/2
f 1/1/1 8/8/8 4/4/4
f 1/1/1 7/7/7 2/2/2
f 4/4/4 8/8/8 5/5/5
f 4/4/4 6/6/6 7/7/7
f 6/6/6 5/5/5 2/2/2
f 5/5/5 8/8/8 3/3/3
f 1/1/1 3/3/3 8/8/8
# Vertices: 8, normals: 8, texture coordinates: 8, faces: 12

